
<svg width="37" height="37" viewBox="0 0 37 37" fill="none" xmlns="http://www.w3.org/2000/svg">
<ellipse cx="18.9846" cy="19.0219" rx="17.5263" ry="17.5263" fill="#00A3FF"/>
<g clip-path="url(#clip0_2362_1479)">
<path d="M11.7847 17.7903L11.5952 18.0745C9.41624 21.485 9.88992 25.9377 12.8268 28.7798C14.4373 30.485 16.711 31.3377 18.9847 31.3377C18.9847 31.3377 18.9847 31.3377 11.7847 17.7903Z" fill="white"/>
<path d="M18.9847 21.864L11.7847 17.6955C18.9847 31.3376 18.9847 31.3376 18.9847 31.3376C18.9847 28.4008 18.9847 24.9903 18.9847 21.864Z" fill="#99DAFF"/>
<path d="M26.1847 17.7903L26.3741 18.0745C28.5531 21.485 28.0794 25.9377 25.1426 28.7798C23.4373 30.485 21.2583 31.3377 18.9847 31.3377C18.9847 31.3377 18.9847 31.3377 26.1847 17.7903Z" fill="#99DAFF"/>
<path d="M18.9847 21.864L26.1847 17.6955C18.9847 31.3376 18.9847 31.3376 18.9847 31.3376C18.9847 28.4008 18.9847 24.9903 18.9847 21.864Z" fill="#33B5FF"/>
<path d="M18.9847 12.6745V19.7797L25.2373 16.2745L18.9847 12.6745Z" fill="#33B5FF"/>
<path d="M18.9847 12.6745L12.732 16.2745L18.9847 19.7797V12.6745Z" fill="#99DAFF"/>
<path d="M18.9847 6.70607L12.732 16.2745L18.9847 12.6745V6.70607Z" fill="white"/>
<path d="M18.9847 12.6745L25.2373 16.2745L18.9847 6.70607V12.6745Z" fill="#99DAFF"/>
</g>
<circle cx="18.5" cy="18.5" r="17.5" stroke="#1BE3C2" stroke-width="2"/>
<defs>
<clipPath id="clip0_2362_1479">
<rect width="17.6211" height="24.6316" fill="white" transform="translate(10.1741 6.70607)"/>
</clipPath>
</defs>
</svg>
