<svg width="111" height="100" viewBox="0 0 111 100" fill="none" xmlns="http://www.w3.org/2000/svg">
<g clip-path="url(#clip0_11_2)">
<path d="M2.08087 6.94446L6.67328 2.35205H48.0051L52.5975 6.94446V20.5064L47.5744 25.5294L52.5975 30.4806V48.2762H34.2278V34.4989L25.33 25.8882V25.0988L34.2278 16.4881V15.6987H20.4505V48.2762H2.08087V6.94446ZM107.326 48.2762H61.3299L56.8092 43.6838V6.94446L61.4017 2.35205H102.733L107.326 6.94446V28.1844L100.652 34.9296H107.326V48.2762ZM88.9561 15.6987H75.1789V34.9296H78.5513L88.9561 24.6683V15.6987ZM6.67328 100L2.08087 95.4079V58.6686L6.67328 54.0762H48.0051L52.5975 58.6686V100H34.2278V94.0445L28.2002 100H6.67328ZM20.4505 67.4227V86.51L34.2278 72.7327V67.4227H20.4505ZM75.1789 65.3421L82.0675 72.0152L88.9561 65.3421V54.0762H107.326V72.2307L102.303 77.2534L107.326 82.2048V100H88.9561V89.0217L82.0675 82.3483L75.1789 89.0217V100H56.8092V82.2048L61.832 77.2534L56.8092 72.2307V54.0762H75.1789V65.3421Z" fill="url(#paint0_linear_11_2)"/>
</g>
<defs>
<linearGradient id="paint0_linear_11_2" x1="54.7033" y1="2.35205" x2="54.7033" y2="100" gradientUnits="userSpaceOnUse">
<stop stop-color="#FF8A00"/>
<stop offset="1" stop-color="#F64E00"/>
</linearGradient>
<clipPath id="clip0_11_2">
<rect width="110.345" height="100" fill="white"/>
</clipPath>
</defs>
</svg>
